<?xml version="1.0" standalone="no"?><!DOCTYPE svg PUBLIC "-//W3C//DTD SVG 1.1//EN" "http://www.w3.org/Graphics/SVG/1.1/DTD/svg11.dtd"><svg t="1699098119428" class="icon" viewBox="0 0 1102 1024" version="1.1" xmlns="http://www.w3.org/2000/svg" p-id="35198" xmlns:xlink="http://www.w3.org/1999/xlink" width="215.234375" height="200"><path d="M551.390917 0c229.139692 2.520615 413.853538 193.142154 414.72 427.874462v489.156923h84.440615c28.829538 0 52.224 23.945846 52.224 53.484307a52.854154 52.854154 0 0 1-52.224 53.484308H52.230302A52.854154 52.854154 0 0 1 0.006302 970.515692c0-29.538462 23.394462-53.563077 52.224-53.563077h84.519384V427.953231C137.694917 193.142154 322.329994 2.599385 551.390917 0z m49.388308 238.513231c0.551385-4.647385-5.12-6.931692-7.483077-2.993231L382.037071 582.340923c-3.780923 6.222769 0.393846 14.414769 7.246769 14.414769h175.970462c3.544615 0 6.144 3.623385 5.198769 7.325539l-58.998154 235.913846c-1.181538 4.726154 4.647385 7.640615 7.246769 3.623385l227.800616-342.961231c4.096-6.144 0-14.651077-7.089231-14.651077H574.706609c-3.308308 0-5.828923-3.150769-5.356307-6.616616z" fill="#FAA10F" p-id="35199"></path></svg>