<?xml version="1.0" standalone="no"?><!DOCTYPE svg PUBLIC "-//W3C//DTD SVG 1.1//EN" "http://www.w3.org/Graphics/SVG/1.1/DTD/svg11.dtd"><svg t="1719221352676" class="icon" viewBox="0 0 1541 1024" version="1.1" xmlns="http://www.w3.org/2000/svg" p-id="11752" xmlns:xlink="http://www.w3.org/1999/xlink" width="300.9765625" height="200"><path d="M6.321 1016.47h1517.176V7.53H6.321v1008.94z m1519.686 3.765v-3.764 3.764zM0.047 1024V1.255h1529.725v1021.49H0.046z" fill="#353636" p-id="11753"></path><path d="M3.811 5.02h1523.451v1015.215H3.812z" fill="#FFFFFF" p-id="11754"></path><path d="M1116.91 210.824c18.823 0 35.136-10.04 50.195-18.824l-6.274 20.078-17.569 5.02c-8.784 5.02-17.568 10.04-25.098 16.314-6.274 5.02-6.274 16.313-15.059 20.078-12.549 3.765-20.078 13.804-28.862 23.843-11.295 2.51-20.079 8.785-31.373 12.55-7.53 3.764-13.804 10.039-20.078 15.058-6.275 6.275-13.804 11.294-16.314 20.079l-7.53 12.549c-6.274 3.764-15.058 1.255-21.333 1.255-8.784 2.51-18.823 7.529-18.823 16.313-11.295 8.785-11.295 25.098-10.04 37.647 2.51 12.55 12.55 21.334 20.079 30.118l7.53 13.804c5.019 6.274 13.803 8.784 17.568 16.314l10.039 13.804 2.51 15.058c-8.784-7.53-21.333-10.039-33.883-11.294l-20.078 3.765c2.51 7.53-5.02 15.059-12.549 11.294-7.53-3.765-15.059-12.549-23.843-12.549-15.059-1.255-32.628-2.51-42.667 10.04-7.53 11.293-3.764 25.097-5.02 37.646l-11.293 16.314-16.314-1.255-15.059 13.804c-11.294 1.255-22.588 5.02-30.118 13.804l-15.059 6.274-11.294 5.02h-16.313c-5.02 7.53-15.06 8.784-23.843 6.275-12.55-3.765-26.353-1.255-37.648 5.02-12.549 3.764-22.588 12.548-27.607 25.097-3.765 10.04 3.764 18.824 8.784 26.353-10.04-1.255-20.079-1.255-30.118-2.51 3.765-13.804-7.53-26.353-17.568-35.137-8.785-6.274-21.334 1.255-31.373-2.51-7.53 3.765-13.804 8.785-22.588 6.275l-6.275 3.765c-8.784-3.765-17.568-7.53-27.607-10.04L523.34 586.04l-15.06-3.764-13.803-5.02c-5.02-7.53-13.804-10.04-20.079-15.059-1.254-7.53-5.02-15.059-5.02-22.588l-3.764-12.55-12.549-7.529-7.53-13.804-1.254-17.568c0-7.53 2.51-15.059 0-21.333-3.765-6.275-8.785-12.55-11.294-20.079l3.764-17.569c5.02 10.04 13.804 15.06 21.334 22.589 7.53 3.764 17.568 2.51 25.098-2.51 7.53-5.02 13.804-8.784 20.078-13.804 5.02-6.275 6.275-16.314 11.294-23.843l7.53-7.53c11.294-2.51 21.333-10.039 33.882-8.784 18.824 1.255 33.882 11.294 50.196 18.824l15.059-2.51c8.784-5.02 16.314-13.804 18.823-23.843 2.51-13.804 2.51-27.608 2.51-41.412 0-10.04-2.51-20.078-3.764-28.863 15.058 6.275 31.372 11.294 47.686 15.059l17.568-2.51 12.55 2.51 11.294-2.51 13.804 6.275c8.784 0 17.568-2.51 25.098 0 10.039 2.51 20.078 1.255 30.117 3.764 18.824-1.254 38.902-1.254 56.47-8.784 8.785-2.51 17.57 1.255 25.099-2.51 8.784-3.764 15.059-12.549 23.843-17.568l17.569-1.255c23.843-1.255 45.176-11.294 65.255-22.588 8.784-5.02 17.568-11.295 27.607-15.06 12.55-2.51 18.824-15.058 26.353-23.842 15.06 2.51 26.353-6.275 40.157-11.295 7.53-3.764 11.294-12.549 18.824-17.568l16.313-3.765 2.51-5.02z" fill="#E89818" p-id="11755"></path><path d="M571.027 656.314c12.549 10.039 18.823 26.353 21.333 42.666 1.255 7.53 0 15.06-2.51 22.589-11.294-7.53-16.313-18.824-18.823-31.373-3.765-11.294-3.765-22.588 0-33.882z m368.941 31.372c3.765-11.294 8.784-23.843 18.824-31.372 5.02 15.059 2.51 31.372-3.765 46.431-2.51 7.53-8.784 13.804-15.059 18.824-5.02-11.294-3.765-23.844 0-33.883z m-426.667-21.333c15.06 2.51 28.863 10.04 40.157 21.333 7.53 6.275 12.55 16.314 12.55 26.353-22.589-5.02-48.942-20.078-52.707-47.686z m465.569 18.823c10.04-8.784 22.588-16.313 36.392-17.568-3.765 26.353-28.863 41.412-53.96 47.686 1.254-12.549 8.784-22.588 17.568-30.118z m-380.235 15.06l5.02-17.57c15.058 15.06 25.097 40.158 13.803 60.236-10.039-12.55-17.568-26.353-18.823-42.667z m313.725 42.666c-11.294-20.078-1.255-45.177 13.804-60.235 3.765 6.274 6.275 12.549 5.02 20.078-2.51 15.059-8.785 28.863-18.824 40.157z m-278.588-40.157c12.549 10.04 22.588 26.353 23.843 42.667l-5.02 18.823c-18.823-13.804-23.843-38.902-18.823-61.49z m238.431 42.667c1.255-16.314 11.294-31.373 23.843-42.667 5.02 21.333 0 47.686-18.823 61.49l-5.02-18.823z m-351.372-21.334c22.588-5.02 50.196-1.254 67.764 15.06-8.784 7.529-21.333 8.784-32.627 6.274-12.549-2.51-26.353-8.785-35.137-21.334z m143.059-3.764c11.294 10.039 21.333 22.588 26.353 37.647 2.51 7.53 1.254 15.059-2.51 22.588-13.804-10.04-21.334-26.353-23.843-42.667v-17.568z m175.686 33.882c5.02-13.804 15.059-25.098 25.098-35.137 3.765 13.804-1.255 27.608-6.275 40.157-3.764 8.784-10.039 15.059-17.568 21.333-3.765-7.53-3.765-17.569-1.255-26.353z m100.392-15.059c17.569-16.313 45.177-20.078 67.765-15.059-8.785 12.55-22.588 18.824-36.392 21.334-10.04 3.764-22.589 1.255-31.373-6.275z m-242.196-7.53c22.588 10.04 32.627 37.648 28.863 61.491-18.824-15.059-32.628-37.647-28.863-61.49z m105.412 61.491c-3.765-23.843 6.274-51.45 28.862-61.49 3.765 23.843-11.294 46.431-28.862 61.49z m-248.47-30.118c5.019-5.02 11.293-10.039 18.823-10.039 13.804-1.255 27.608 3.765 40.157 6.275-7.53 10.039-21.334 11.294-33.883 11.294-8.784 0-17.568-2.51-25.098-7.53z m360.156-3.764c13.804-3.765 26.353-8.785 40.157-6.275 7.53 0 13.804 5.02 18.823 10.04-12.549 10.039-28.862 10.039-42.666 6.274l-16.314-10.04z m-323.765 33.882c12.55-18.823 40.157-28.863 60.236-17.569-15.06 15.06-38.902 25.098-60.236 17.569z m288.628-18.823c20.078-10.04 46.431 0 58.98 18.823-18.823 7.53-40.157 0-55.216-12.549l-3.764-6.274z m-253.49 36.392c15.058-16.314 38.902-22.589 58.98-16.314-3.765 6.274-8.784 12.549-16.314 16.314-13.804 6.274-30.117 5.02-42.666 0z m218.352-16.314c20.079-7.53 45.177 0 58.98 16.314-13.803 5.02-30.117 7.53-42.666 0-7.53-3.765-12.549-10.04-16.314-16.314z m-139.294 0c20.079 5.02 38.902 11.294 58.98 13.804 20.08-2.51 40.158-8.784 58.981-12.55-15.059 6.275-31.372 11.295-46.431 16.315 10.039 2.51 18.823 7.529 27.608 12.549-13.804-2.51-26.353-7.53-40.157-8.785-13.804 2.51-26.353 6.275-40.157 8.785 8.784-6.275 17.569-10.04 27.608-12.55-15.06-6.274-31.373-11.294-46.432-17.568z" fill="#007F6B" p-id="11756"></path><path d="M658.87 832c12.549-17.569 35.137-30.118 56.47-27.608-5.019 10.04-11.294 18.824-21.333 23.843-10.039 5.02-22.588 5.02-35.137 3.765z m154.353-27.608c22.588-1.255 43.922 10.04 56.47 27.608-12.548 1.255-27.607 1.255-38.901-6.275-8.785-5.02-12.55-13.803-17.57-21.333z" fill="#007F6B" p-id="11757"></path></svg>