<?xml version="1.0" standalone="no"?><!DOCTYPE svg PUBLIC "-//W3C//DTD SVG 1.1//EN" "http://www.w3.org/Graphics/SVG/1.1/DTD/svg11.dtd"><svg t="1699002754110" class="icon" viewBox="0 0 1024 1024" version="1.1" xmlns="http://www.w3.org/2000/svg" p-id="7066" xmlns:xlink="http://www.w3.org/1999/xlink" width="200" height="200"><path d="M874.775273 144.034909C861.928727 63.697455 678.423273 0 453.818182 0 229.213091 0 45.707636 63.697455 32.861091 144.034909H32.069818V810.123636h0.791273C45.707636 890.461091 229.236364 954.181818 453.818182 954.181818s408.110545-63.720727 420.957091-144.034909h0.791272V144.058182h-0.791272z" fill="#545E73" p-id="7067"></path><path d="M453.818182 738.141091C220.881455 738.141091 32.069818 669.626182 32.069818 585.122909v225.047273h0.791273C45.707636 890.437818 229.236364 954.181818 453.818182 954.181818s408.110545-63.720727 420.957091-144.034909h0.791272v-225.047273c0 84.526545-188.811636 153.041455-421.748363 153.041455zM32.069818 576.116364v9.006545c0-3.025455 0.302545-6.027636 0.791273-9.006545H32.069818z" fill="#38454F" p-id="7068"></path><path d="M874.775273 576.116364c0.465455 2.978909 0.791273 5.981091 0.791272 9.006545v-9.006545h-0.791272z" fill="#38454F" p-id="7069"></path><path d="M453.818182 522.100364C220.881455 522.100364 32.069818 453.585455 32.069818 369.058909v225.047273h0.791273C45.707636 674.443636 229.236364 738.141091 453.818182 738.141091s408.110545-63.720727 420.957091-144.034909h0.791272v-225.047273c0 84.526545-188.811636 153.041455-421.748363 153.041455zM32.069818 360.075636v8.983273c0-3.025455 0.302545-6.004364 0.791273-8.983273H32.069818zM874.775273 360.075636c0.465455 2.978909 0.791273 5.981091 0.791272 8.983273v-8.983273h-0.791272z" fill="#556080" p-id="7070"></path><path d="M32.069818 153.018182a421.748364 153.018182 0 1 0 843.496727 0 421.748364 153.018182 0 1 0-843.496727 0Z" fill="#91BAE1" p-id="7071"></path><path d="M453.818182 306.036364C220.881455 306.036364 32.069818 237.568 32.069818 153.041455v225.047272h0.791273c12.846545 80.314182 196.375273 144.034909 420.957091 144.034909s408.110545-63.720727 420.957091-144.034909h0.791272v-225.047272c0 84.526545-188.811636 153.041455-421.748363 153.041454zM32.069818 144.034909v8.983273c0-3.025455 0.302545-6.004364 0.791273-8.983273H32.069818zM874.775273 144.034909c0.465455 2.978909 0.791273 5.981091 0.791272 8.983273V144.058182h-0.791272z" fill="#8697CB" p-id="7072"></path><path d="M991.883636 781.637818l-25.530181-5.12c-37.934545-7.586909-55.272727-53.713455-32.465455-86.109091l16.058182-22.807272-34.653091-36.072728-21.527273 15.220364c-31.930182 22.551273-75.543273 2.722909-81.431273-37.003636l-4.142545-27.927273h-48.965818l-6.353455 34.350545c-7.121455 38.632727-49.850182 57.041455-81.082182 35.002182l-27.810909-19.618909-34.629818 36.072727 16.034909 22.760728c22.807273 32.442182 5.445818 78.545455-32.465454 86.132363l-25.530182 5.12v51.037091l26.786909 4.282182c38.167273 6.120727 57.181091 51.525818 35.514182 84.829091l-14.592 22.411636 34.653091 36.072727 21.853091-16.709818c31.138909-23.738182 75.403636-5.655273 82.688 33.815273L759.226182 1024h48.965818l2.909091-19.642182c6.004364-40.610909 51.223273-60.113455 83.013818-35.816727l15.36 11.752727 34.653091-36.072727-14.592-22.411636c-21.643636-33.28-2.606545-78.708364 35.514182-84.829091l26.786909-4.305455v-51.037091h0.046545z" fill="#BDC3C7" p-id="7073"></path><path d="M708.887273 802.909091a73.704727 70.749091 90 1 0 141.498182 0 73.704727 70.749091 90 1 0-141.498182 0Z" fill="#FFFFFF" p-id="7074"></path><path d="M779.636364 895.045818c-48.756364 0-88.436364-41.332364-88.436364-92.136727C691.2 752.128 730.88 710.795636 779.636364 710.795636c48.756364 0 88.436364 41.332364 88.436363 92.113455 0 50.804364-39.68 92.136727-88.436363 92.136727z m0-147.409454c-29.253818 0-53.061818 24.808727-53.061819 55.272727 0 30.487273 23.808 55.272727 53.061819 55.272727s53.061818-24.785455 53.061818-55.272727-23.808-55.272727-53.061818-55.272727z" fill="#ECF0F1" p-id="7075"></path></svg>