<?xml version="1.0" standalone="no"?><!DOCTYPE svg PUBLIC "-//W3C//DTD SVG 1.1//EN" "http://www.w3.org/Graphics/SVG/1.1/DTD/svg11.dtd"><svg t="1718891544779" class="icon" viewBox="0 0 1024 1024" version="1.1" xmlns="http://www.w3.org/2000/svg" p-id="10013" xmlns:xlink="http://www.w3.org/1999/xlink" width="200" height="200"><path d="M128 192v480a64 64 0 0 0 64 64h320v-64H192V192h640v288h64V192a64 64 0 0 0-64-64H192a64 64 0 0 0-64 64z m335.68 78.56l102.72 162.176 20.8-56.256c5.216-5.536 12.48-9.088 20.384-9.984l4-0.224H736v58.016h-109.664l-40.64 77.504c-13.44 14.336-37.824 13.28-49.92-1.28l-2.24-3.072-100.576-158.88-26.08 73.6a32.736 32.736 0 0 1-22.176 11.904l-3.84 0.224H288v-58.016h76.384l45.536-98.144c13.568-17.184 42.176-15.872 53.76 2.432zM752 512a112 112 0 0 0-112 112v16h-32a32 32 0 0 0-32 32v192a32 32 0 0 0 32 32h288a32 32 0 0 0 32-32v-192a32 32 0 0 0-32-32h-32v-16a112 112 0 0 0-112-112z m48 112v16h-96v-16q0-19.872 14.08-33.92 14.048-14.08 33.92-14.08t33.92 14.08q14.08 14.048 14.08 33.92zM640 832v-128h224v128h-224z m-128 0v64H192v-64h320z" p-id="10014" fill="#ea9518"></path></svg>