<?xml version="1.0" standalone="no"?><!DOCTYPE svg PUBLIC "-//W3C//DTD SVG 1.1//EN" "http://www.w3.org/Graphics/SVG/1.1/DTD/svg11.dtd"><svg t="1718953342481" class="icon" viewBox="0 0 1024 1024" version="1.1" xmlns="http://www.w3.org/2000/svg" p-id="5406" xmlns:xlink="http://www.w3.org/1999/xlink" width="200" height="200"><path d="M52 52h921v614H52z" fill="#ffffff" p-id="5407" data-spm-anchor-id="a313x.search_index.0.i0.170e3a81unmTsd" class="selected"></path><path d="M972.6 1H51.3C23 1 0 23.8 0 52.2v613.6C0 694 22.9 717 51.3 717H461v256H181.1c-15.1 0-27.3 12.4-26.1 27.5 1 13.2 12 23.5 25.5 23.5H843c15.1 0 27.3-12.4 26.1-27.5-1-13.2-12-23.5-25.5-23.5H563V717h409.7c28.3 0 51.3-22.9 51.3-51.2V52.2c-0.1-28.3-23-51.2-51.4-51.2z m0.3 665H52V52h921v614h-0.1z" fill="#1296db" p-id="5408"></path><path d="M421.2 609.1l204.1-383L723.7 410H921v-51H754.5L625.4 118.2 421 499.6 346.9 359H102v51h214z" fill="#1296db" p-id="5409"></path></svg>