<?xml version="1.0" standalone="no"?><!DOCTYPE svg PUBLIC "-//W3C//DTD SVG 1.1//EN" "http://www.w3.org/Graphics/SVG/1.1/DTD/svg11.dtd"><svg t="1699003294034" class="icon" viewBox="0 0 1024 1024" version="1.1" xmlns="http://www.w3.org/2000/svg" p-id="24496" xmlns:xlink="http://www.w3.org/1999/xlink" width="200" height="200"><path d="M229.226667 289.493333l213.333333-126.848a10.666667 10.666667 0 0 1 10.88 18.346667l-213.333333 126.848a10.666667 10.666667 0 1 1-10.88-18.346667zM229.226667 502.826667l213.333333-126.848a10.666667 10.666667 0 0 1 10.88 18.346666l-213.333333 126.848a10.666667 10.666667 0 1 1-10.88-18.346666zM229.226667 716.16l213.333333-126.848a10.666667 10.666667 0 0 1 10.88 18.346667l-213.333333 126.848a10.666667 10.666667 0 1 1-10.88-18.346667z" fill="#F7BD29" p-id="24497"></path><path d="M229.12 716.224l212.949333-130.069333a10.666667 10.666667 0 0 1 11.136 18.197333l-212.970666 130.090667a10.666667 10.666667 0 1 1-11.114667-18.218667z" fill="#F7BD29" p-id="24498"></path><path d="M238.549333 715.392l212.970667 83.264a10.666667 10.666667 0 1 1-7.765333 19.861333l-212.970667-83.242666a10.666667 10.666667 0 1 1 7.765333-19.882667zM588.629333 168a10.645333 10.645333 0 1 0-19.84 7.850667l210.624 532.053333a10.666667 10.666667 0 0 0 19.84-7.829333l-210.624-532.053334z" fill="#F7BD29" p-id="24499"></path><path d="M584.277333 162.837333l212.266667 129.877334a10.666667 10.666667 0 0 1-11.157333 18.197333l-212.245334-129.877333a10.666667 10.666667 0 1 1 11.136-18.197334zM595.050667 389.397333a10.666667 10.666667 0 1 0-17.877334 11.648l200.576 307.925334a10.666667 10.666667 0 1 0 17.877334-11.648l-200.576-307.925334z" fill="#F7BD29" p-id="24500"></path><path d="M581.589333 385.557333l200.554667-93.482666a10.666667 10.666667 0 1 1 9.024 19.349333l-200.554667 93.461333a10.666667 10.666667 0 1 1-9.024-19.328zM575.168 800.170667l208.448-106.24a10.666667 10.666667 0 1 1 9.685333 18.986666l-208.426666 106.261334a10.666667 10.666667 0 1 1-9.706667-18.986667z" fill="#F7BD29" p-id="24501"></path><path d="M796.437333 305.706667l-206.549333 507.989333a10.666667 10.666667 0 0 1-19.754667-8.021333l206.549334-508.010667a10.666667 10.666667 0 1 1 19.754666 8.021333z" fill="#F7BD29" p-id="24502"></path><path d="M795.349333 307.925333a10.666667 10.666667 0 0 0-17.386666-12.373333l-212.949334 299.754667a10.666667 10.666667 0 1 0 17.386667 12.373333l212.949333-299.733333z" fill="#F7BD29" p-id="24503"></path><path d="M795.349333 307.925333a10.666667 10.666667 0 0 0-17.386666-12.373333l-212.949334 299.754667a10.666667 10.666667 0 1 0 17.386667 12.373333l212.949333-299.733333z" fill="#F7BD29" p-id="24504"></path><path d="M795.349333 307.925333a10.666667 10.666667 0 0 0-17.386666-12.373333l-212.949334 299.754667a10.666667 10.666667 0 1 0 17.386667 12.373333l212.949333-299.733333z" fill="#F7BD29" p-id="24505"></path><path d="M795.349333 307.925333a10.666667 10.666667 0 0 0-17.386666-12.373333l-212.949334 299.754667a10.666667 10.666667 0 1 0 17.386667 12.373333l212.949333-299.733333z" fill="#F7BD29" p-id="24506"></path><path d="M569.002667 611.072l213.461333 105.045333a10.666667 10.666667 0 1 0 9.429333-19.136l-213.482666-105.066666a10.666667 10.666667 0 0 0-9.408 19.157333zM243.349333 505.813333a10.666667 10.666667 0 0 0-17.365333 12.373334l214.997333 301.589333a10.688 10.688 0 0 0 16.213334 1.344 10.666667 10.666667 0 0 0 1.152-13.717333L243.349333 505.813333z" fill="#F7BD29" p-id="24507"></path><path d="M238.570667 502.08l215.232 84.544a10.666667 10.666667 0 1 1-7.808 19.84l-215.232-84.522667a10.666667 10.666667 0 1 1 7.808-19.861333zM230.698667 308.565333a10.666667 10.666667 0 1 1 7.936-19.797333l212.565333 85.056a10.666667 10.666667 0 0 1-7.936 19.797333l-212.565333-85.056z" fill="#F7BD29" p-id="24508"></path><path d="M244.544 294.613333l210.517333 512.682667a10.666667 10.666667 0 0 1-19.733333 8.106667L224.810667 302.72a10.666667 10.666667 0 1 1 19.733333-8.106667z" fill="#F7BD29" p-id="24509"></path><path d="M243.349333 292.48a10.666667 10.666667 0 0 0-17.365333 12.373333l211.946667 297.301334a10.666667 10.666667 0 1 0 17.386666-12.373334v-0.021333L243.349333 292.48z" fill="#F7BD29" p-id="24510"></path><path d="M512 256a82.218667 82.218667 0 0 1-60.330667-25.002667A82.218667 82.218667 0 0 1 426.666667 170.666667c0-23.573333 8.32-43.669333 25.002666-60.330667A82.218667 82.218667 0 0 1 512 85.333333c23.573333 0 43.669333 8.32 60.330667 25.002667A82.218667 82.218667 0 0 1 597.333333 170.666667c0 23.573333-8.32 43.669333-25.002666 60.330666A82.218667 82.218667 0 0 1 512 256z m0-128c-11.776 0-21.845333 4.16-30.165333 12.501333-8.32 8.32-12.501333 18.389333-12.501334 30.165334 0 11.776 4.16 21.845333 12.501334 30.165333 8.32 8.32 18.389333 12.501333 30.165333 12.501333 11.776 0 21.845333-4.16 30.165333-12.501333 8.32-8.32 12.501333-18.389333 12.501334-30.165333 0-11.776-4.16-21.845333-12.501334-30.165334A41.109333 41.109333 0 0 0 512 128zM512 469.333333a82.218667 82.218667 0 0 1-60.330667-25.002666A82.218667 82.218667 0 0 1 426.666667 384c0-23.573333 8.32-43.669333 25.002666-60.330667A82.218667 82.218667 0 0 1 512 298.666667c23.573333 0 43.669333 8.32 60.330667 25.002666A82.218667 82.218667 0 0 1 597.333333 384c0 23.573333-8.32 43.669333-25.002666 60.330667A82.218667 82.218667 0 0 1 512 469.333333z m0-128c-11.776 0-21.845333 4.16-30.165333 12.501334-8.32 8.32-12.501333 18.389333-12.501334 30.165333 0 11.776 4.16 21.845333 12.501334 30.165333 8.32 8.32 18.389333 12.501333 30.165333 12.501334 11.776 0 21.845333-4.16 30.165333-12.501334 8.32-8.32 12.501333-18.389333 12.501334-30.165333 0-11.776-4.16-21.845333-12.501334-30.165333A41.109333 41.109333 0 0 0 512 341.333333zM512 682.666667a82.218667 82.218667 0 0 1-60.330667-25.002667A82.218667 82.218667 0 0 1 426.666667 597.333333c0-23.573333 8.32-43.669333 25.002666-60.330666A82.218667 82.218667 0 0 1 512 512c23.573333 0 43.669333 8.32 60.330667 25.002667A82.218667 82.218667 0 0 1 597.333333 597.333333c0 23.573333-8.32 43.669333-25.002666 60.330667A82.218667 82.218667 0 0 1 512 682.666667z m0-128c-11.776 0-21.845333 4.16-30.165333 12.501333-8.32 8.32-12.501333 18.389333-12.501334 30.165333 0 11.776 4.16 21.845333 12.501334 30.165334 8.32 8.32 18.389333 12.501333 30.165333 12.501333 11.776 0 21.845333-4.16 30.165333-12.501333 8.32-8.32 12.501333-18.389333 12.501334-30.165334 0-11.776-4.16-21.845333-12.501334-30.165333A41.109333 41.109333 0 0 0 512 554.666667zM512 896a82.218667 82.218667 0 0 1-60.330667-25.002667A82.218667 82.218667 0 0 1 426.666667 810.666667c0-23.573333 8.32-43.669333 25.002666-60.330667A82.218667 82.218667 0 0 1 512 725.333333c23.573333 0 43.669333 8.32 60.330667 25.002667A82.218667 82.218667 0 0 1 597.333333 810.666667c0 23.573333-8.32 43.669333-25.002666 60.330666A82.218667 82.218667 0 0 1 512 896z m0-128c-11.776 0-21.845333 4.16-30.165333 12.501333-8.32 8.32-12.501333 18.389333-12.501334 30.165334 0 11.776 4.16 21.845333 12.501334 30.165333 8.32 8.32 18.389333 12.501333 30.165333 12.501333 11.776 0 21.845333-4.16 30.165333-12.501333 8.32-8.32 12.501333-18.389333 12.501334-30.165333 0-11.776-4.16-21.845333-12.501334-30.165334A41.109333 41.109333 0 0 0 512 768zM170.666667 384a82.218667 82.218667 0 0 1-60.330667-25.002667A82.218667 82.218667 0 0 1 85.333333 298.666667c0-23.573333 8.32-43.669333 25.002667-60.330667A82.218667 82.218667 0 0 1 170.666667 213.333333c23.573333 0 43.669333 8.32 60.330666 25.002667A82.218667 82.218667 0 0 1 256 298.666667c0 23.573333-8.32 43.669333-25.002667 60.330666A82.218667 82.218667 0 0 1 170.666667 384z m0-128c-11.776 0-21.845333 4.16-30.165334 12.501333-8.32 8.32-12.501333 18.389333-12.501333 30.165334 0 11.776 4.16 21.845333 12.501333 30.165333 8.32 8.32 18.389333 12.501333 30.165334 12.501333 11.776 0 21.845333-4.16 30.165333-12.501333 8.32-8.32 12.501333-18.389333 12.501333-30.165333 0-11.776-4.16-21.845333-12.501333-30.165334A41.109333 41.109333 0 0 0 170.666667 256zM170.666667 597.333333a82.218667 82.218667 0 0 1-60.330667-25.002666A82.218667 82.218667 0 0 1 85.333333 512c0-23.573333 8.32-43.669333 25.002667-60.330667A82.218667 82.218667 0 0 1 170.666667 426.666667c23.573333 0 43.669333 8.32 60.330666 25.002666A82.218667 82.218667 0 0 1 256 512c0 23.573333-8.32 43.669333-25.002667 60.330667A82.218667 82.218667 0 0 1 170.666667 597.333333z m0-128c-11.776 0-21.845333 4.16-30.165334 12.501334-8.32 8.32-12.501333 18.389333-12.501333 30.165333 0 11.776 4.16 21.845333 12.501333 30.165333 8.32 8.32 18.389333 12.501333 30.165334 12.501334 11.776 0 21.845333-4.16 30.165333-12.501334 8.32-8.32 12.501333-18.389333 12.501333-30.165333 0-11.776-4.16-21.845333-12.501333-30.165333A41.109333 41.109333 0 0 0 170.666667 469.333333zM170.666667 810.666667a82.218667 82.218667 0 0 1-60.330667-25.002667A82.218667 82.218667 0 0 1 85.333333 725.333333c0-23.573333 8.32-43.669333 25.002667-60.330666A82.218667 82.218667 0 0 1 170.666667 640c23.573333 0 43.669333 8.32 60.330666 25.002667A82.218667 82.218667 0 0 1 256 725.333333c0 23.573333-8.32 43.669333-25.002667 60.330667A82.218667 82.218667 0 0 1 170.666667 810.666667z m0-128c-11.776 0-21.845333 4.16-30.165334 12.501333-8.32 8.32-12.501333 18.389333-12.501333 30.165333 0 11.776 4.16 21.845333 12.501333 30.165334 8.32 8.32 18.389333 12.501333 30.165334 12.501333 11.776 0 21.845333-4.16 30.165333-12.501333 8.32-8.32 12.501333-18.389333 12.501333-30.165334 0-11.776-4.16-21.845333-12.501333-30.165333A41.109333 41.109333 0 0 0 170.666667 682.666667zM853.333333 384a82.218667 82.218667 0 0 1-60.330666-25.002667A82.218667 82.218667 0 0 1 768 298.666667c0-23.573333 8.32-43.669333 25.002667-60.330667A82.218667 82.218667 0 0 1 853.333333 213.333333c23.573333 0 43.669333 8.32 60.330667 25.002667A82.218667 82.218667 0 0 1 938.666667 298.666667c0 23.573333-8.32 43.669333-25.002667 60.330666A82.218667 82.218667 0 0 1 853.333333 384z m0-128c-11.776 0-21.845333 4.16-30.165333 12.501333-8.32 8.32-12.501333 18.389333-12.501333 30.165334 0 11.776 4.16 21.845333 12.501333 30.165333 8.32 8.32 18.389333 12.501333 30.165333 12.501333 11.776 0 21.845333-4.16 30.165334-12.501333 8.32-8.32 12.501333-18.389333 12.501333-30.165333 0-11.776-4.16-21.845333-12.501333-30.165334A41.109333 41.109333 0 0 0 853.333333 256zM853.333333 789.333333a82.218667 82.218667 0 0 1-60.330666-25.002666A82.218667 82.218667 0 0 1 768 704c0-23.573333 8.32-43.669333 25.002667-60.330667A82.218667 82.218667 0 0 1 853.333333 618.666667c23.573333 0 43.669333 8.32 60.330667 25.002666A82.218667 82.218667 0 0 1 938.666667 704c0 23.573333-8.32 43.669333-25.002667 60.330667A82.218667 82.218667 0 0 1 853.333333 789.333333z m0-128c-11.776 0-21.845333 4.16-30.165333 12.501334-8.32 8.32-12.501333 18.389333-12.501333 30.165333 0 11.776 4.16 21.845333 12.501333 30.165333 8.32 8.32 18.389333 12.501333 30.165333 12.501334 11.776 0 21.845333-4.16 30.165334-12.501334 8.32-8.32 12.501333-18.389333 12.501333-30.165333 0-11.776-4.16-21.845333-12.501333-30.165333A41.109333 41.109333 0 0 0 853.333333 661.333333z" fill="#2676FF" p-id="24511"></path></svg>