<?xml version="1.0" standalone="no"?><!DOCTYPE svg PUBLIC "-//W3C//DTD SVG 1.1//EN" "http://www.w3.org/Graphics/SVG/1.1/DTD/svg11.dtd"><svg t="1699097695972" class="icon" viewBox="0 0 1024 1024" version="1.1" xmlns="http://www.w3.org/2000/svg" p-id="22838" xmlns:xlink="http://www.w3.org/1999/xlink" width="200" height="200"><path d="M801.05638314 681.90859858l-294.20528411 0 0 117.67593384 264.78012084 0 0 58.8256073L124.39581681 858.41013972l0-58.8256073 264.77934838 0L389.17516519 681.90859858 94.94361688 681.90859858a29.39967156 29.39967156 0 0 1-29.42593574-29.39967155L65.51768114 152.32286517c0-16.2420845 13.15681458-29.39967156 29.42593574-29.39967155l706.11276626 0c16.26834869 0 29.42593574 13.15758706 29.42593574 29.40044402L830.48231888 652.50815455a29.42593574 29.42593574 0 0 1-29.42593574 29.40044403z m-29.45219993-147.10264206L124.39581681 534.80595652l0 58.82406235 647.23463059 0 0-58.82406234z" fill="#aad08f" p-id="22839" data-spm-anchor-id="a313x.search_index.0.i10.326a3a814YU1NK" class=""></path><path d="M976.72765188 787.72984011l-227.26657879 0 0 90.90185777 204.5363406 0 0 45.44138137L454.02347143 924.07307925l0-45.44138137 204.53574389 0L658.55921532 787.72984011 431.27234806 787.72984011a22.71054646 22.71054646 0 0 1-22.73083491-22.71054644L408.54151315 378.63746715c0-12.54662364 10.16332609-22.71054646 22.73083491-22.71054644l545.45530382 0c12.56691214 0 22.73083492 10.16392281 22.73083491 22.71114316L999.4584868 765.01869694a22.73083492 22.73083492 0 0 1-22.73083492 22.71114317z m-22.75112337-113.6332894L454.02347143 674.0965507l-1e-8 45.44018795 499.97334555 0 0-45.44018794z" fill="#36ab60" p-id="22840" data-spm-anchor-id="a313x.search_index.0.i11.326a3a814YU1NK" class="selected"></path></svg>