<?xml version="1.0" standalone="no"?><!DOCTYPE svg PUBLIC "-//W3C//DTD SVG 1.1//EN" "http://www.w3.org/Graphics/SVG/1.1/DTD/svg11.dtd"><svg t="1699003046627" class="icon" viewBox="0 0 1024 1024" version="1.1" xmlns="http://www.w3.org/2000/svg" p-id="18591" xmlns:xlink="http://www.w3.org/1999/xlink" width="200" height="200"><path d="M782.933333 853.333333H480a358.72 358.72 0 0 1-252.544-114.666666A359.808 359.808 0 0 1 130.133333 480a359.338667 359.338667 0 0 1 110.122667-248.533333A362.048 362.048 0 0 1 492.8 130.133333h42.666667a360.362667 360.362667 0 0 1 256.533333 106.133334A360.32 360.32 0 0 1 898.133333 492.8a354.88 354.88 0 0 1-147.2 290.133333l44.8 32a22.570667 22.570667 0 0 1 4.266667 29.866667 19.2 19.2 0 0 1-17.066667 8.533333zM341.141333 455.466667a53.696 53.696 0 0 0-38.144 16 48.490667 48.490667 0 0 0-15.978666 35.178666 54.208 54.208 0 0 0 15.978666 39.509334l113.066667 113.066666a61.12 61.12 0 0 0 38.4 14.933334 37.077333 37.077333 0 0 0 34.133333-14.933334l226.133334-226.133333a48.469333 48.469333 0 0 0 15.978666-35.157333 54.229333 54.229333 0 0 0-15.978666-39.509334 48.448 48.448 0 0 0-36.544-16 53.674667 53.674667 0 0 0-38.144 16l-187.733334 187.733334-74.666666-74.666667a48.448 48.448 0 0 0-36.501334-16.021333z" fill="#2F54EB" p-id="18592"></path></svg>