<?xml version="1.0" standalone="no"?><!DOCTYPE svg PUBLIC "-//W3C//DTD SVG 1.1//EN" "http://www.w3.org/Graphics/SVG/1.1/DTD/svg11.dtd"><svg t="1718891484895" class="icon" viewBox="0 0 1024 1024" version="1.1" xmlns="http://www.w3.org/2000/svg" p-id="6042" xmlns:xlink="http://www.w3.org/1999/xlink" width="200" height="200"><path d="M828.515097 783.525161v37.656774a36.005161 36.005161 0 0 1-11.627355 26.557936 40.365419 40.365419 0 0 1-27.879226 11.098839H234.562065c-10.471226 0-20.513032-3.963871-27.945291-11.032775a36.764903 36.764903 0 0 1-11.56129-26.624v-37.656774c0.132129 20.744258 17.738323 37.524645 39.506581 37.656774h554.446451c10.471226 0 20.546065-3.963871 27.94529-11.032774 7.399226-7.035871 11.56129-16.648258 11.561291-26.624z" fill="#C1C7D0" p-id="6043"></path><path d="M907.957677 481.478194v188.71329c0 9.975742-4.129032 19.555097-11.56129 26.624a40.497548 40.497548 0 0 1-27.94529 11.032774H155.581935a39.572645 39.572645 0 0 1-27.879225-11.098839 36.864 36.864 0 0 1-11.627355-26.954322v-188.316903h791.915355zM321.502968 521.348129c-16.185806 0-28.672 5.780645-36.996129 17.573161v-14.336H261.615484v165.326452h24.509935v-63.355871c9.711484 13.873548 21.735226 20.810323 36.533678 20.810323 17.11071 0 30.753032-6.243097 40.464516-18.729291 9.017806-11.56129 13.642323-26.128516 13.642322-43.701677 0-18.498065-4.624516-33.296516-13.873548-44.857807-10.173935-12.486194-23.816258-18.72929-41.389419-18.72929z m398.864516 0c-16.185806 0-28.672 5.780645-36.996129 17.573161v-14.336h-22.891355v165.326452h24.509935v-63.355871c9.711484 13.873548 21.735226 20.810323 36.533678 20.810323 17.11071 0 30.753032-6.243097 40.464516-18.729291 9.017806-11.56129 13.642323-26.128516 13.642323-43.701677 0-18.498065-4.624516-33.296516-13.873549-44.857807-10.173935-12.486194-23.816258-18.72929-41.389419-18.72929z m-267.297032 0c-18.498065 0-32.834065 6.243097-43.239226 18.72929-9.711484 11.56129-14.567226 26.359742-14.567226 44.395355 0 18.498065 4.855742 33.296516 14.798452 44.857807 10.173935 12.023742 24.27871 18.035613 42.545548 18.035613 15.260903 0 27.747097-3.930839 36.996129-11.561291 9.249032-7.861677 15.492129-19.885419 18.266839-35.84h-24.27871c-2.312258 18.035613-12.486194 27.284645-30.753032 27.284645-10.636387 0-18.498065-3.930839-23.816258-11.330064-5.780645-7.630452-8.555355-18.266839-8.555355-31.677936 0-13.411097 2.77471-24.047484 8.786581-31.446709 5.780645-7.630452 13.642323-11.330065 23.816258-11.330065 8.324129 0 15.029677 1.849806 20.116645 5.780645 5.086968 3.699613 8.324129 9.711484 9.942709 17.804387h24.27871c-2.312258-14.798452-8.324129-25.89729-17.573161-33.296516-9.249032-6.936774-21.504-10.405161-36.764903-10.405161z m129.717677 0c-14.798452 0-26.822194 2.543484-35.608774 8.092903-10.173935 6.011871-16.648258 15.723355-19.191742 28.672l24.27871 2.081033a21.20671 21.20671 0 0 1 10.405161-14.798452c4.624516-2.77471 10.867613-4.162065 18.498064-4.162065 18.035613 0 27.053419 8.324129 27.05342 24.972387v4.855742l-26.822194 0.693678c-17.573161 0.462452-31.44671 3.930839-41.158193 10.867613-10.636387 7.168-15.954581 17.573161-15.954581 30.984258 0 9.94271 3.699613 18.035613 11.330065 24.278709 6.936774 6.243097 16.648258 9.480258 29.134451 9.480259 10.636387 0 19.885419-2.081032 27.747097-5.780646 6.936774-3.468387 12.717419-8.324129 17.341935-14.336v16.879484h22.660129v-76.304516c0-14.567226-3.699613-25.666065-10.867612-33.296516-8.324129-8.786581-21.272774-13.179871-38.845936-13.179871z m25.434839 67.517936v6.936774c0 9.249032-3.930839 17.11071-11.330065 23.353806-7.399226 6.243097-16.185806 9.480258-26.590968 9.480258a23.320774 23.320774 0 0 1-15.029677-4.624516 13.543226 13.543226 0 0 1-5.780645-11.330064c0-14.798452 11.098839-22.660129 33.527742-23.122581l25.203613-0.693677z m-290.419613-47.632517c12.023742 0 20.810323 4.162065 26.590968 12.948646 4.624516 7.399226 7.168 17.573161 7.168 30.753032s-2.77471 23.353806-7.861678 30.753032c-5.780645 7.861677-14.567226 11.792516-26.590968 11.792516a26.756129 26.756129 0 0 1-22.197677-10.867613c-6.474323-7.861677-9.480258-18.266839-9.480258-30.984258v-2.081032c0-12.254968 2.543484-22.197677 7.630452-29.596903 5.780645-8.555355 14.104774-12.717419 24.741161-12.71742z m398.864516 0c12.023742 0 20.810323 4.162065 26.590968 12.948646 4.624516 7.399226 7.168 17.573161 7.168 30.753032s-2.77471 23.353806-7.861678 30.753032c-5.780645 7.861677-14.567226 11.792516-26.590967 11.792516a26.756129 26.756129 0 0 1-22.197678-10.867613c-6.474323-7.861677-9.480258-18.266839-9.480258-30.984258v-2.081032c0-12.254968 2.543484-22.197677 7.630452-29.596903 5.780645-8.555355 14.104774-12.717419 24.741161-12.71742z" fill="#4BE289" p-id="6044"></path><path d="M195.055484 481.478194v-75.742968L115.612903 481.478194h79.442581z m633.459613 0l0.858838-75.709936L908.387097 481.478194h-79.872z" fill="#2F975D" p-id="6045"></path><path d="M828.515097 308.257032v5.153033h-214.181162c-10.504258 0-20.546065-3.963871-27.94529-11.032775a36.764903 36.764903 0 0 1-11.56129-26.624V66.064516c10.570323 0 20.711226 3.996903 28.275613 11.098839l214.61058 204.139355c7.267097 7.234065 11.164903 16.945548 10.801549 26.954322z" fill="#DBE1EA" p-id="6046"></path></svg>